<svg xmlns="http://www.w3.org/2000/svg" xmlns:xlink="http://www.w3.org/1999/xlink" viewBox="0 0 229.78 192.03"><defs><style>.ec1603a7-5ac6-421f-8326-2ff92f2b22a1{fill:url(#e83a92e7-2b4e-4a60-a1fc-741a3e55cee8);}.b3625158-e7cf-4201-9a4c-4427de12799a{fill:#e42826;}.b955b23d-45c1-4ee7-a6b0-785d93b81575{fill:url(#e4e6baa7-b4fe-4db6-95f6-3fcfef2d3421);}.ffed7d27-a790-48f9-b9b8-069e1283f3ca{fill:url(#eb49bed2-35dd-4d2d-9882-64a3ddf5e8ae);}.e29ff4cd-4b12-4b5c-bd8f-b4d758661257{fill:url(#a21bb6b3-00bf-44c6-ad07-90fe57f42e4e);}.a4781a63-8296-4b01-bdfd-d37313b3d81d{fill:url(#bd754781-b3bf-46d9-93a6-dc93bc0af982);}.b82787e0-2779-4f74-af20-cb6f67626330{fill:url(#ae22e81c-40f0-4df3-ae16-5e30032d26ec);}.ad6521db-363b-41b7-be77-b4778d675040{fill:url(#efd12832-c08e-40cc-b9a1-9b53ace7ad7e);}.ab489599-2dd9-4a7d-a66a-3e196670ef0e{fill:url(#b0604f5d-bd04-4b02-8e7d-41c3154525ba);}.feaddd45-ac80-4bc8-b5e3-300b2e1bdd9a{fill:url(#ae693b32-eb5d-4cde-b451-bacb04fbec0c);}.aecdc344-1520-4975-ba1e-4c66f7ddc75f{fill:url(#e6a61262-23c9-4ad0-8747-872c855ed1b4);}.bb33bf9a-9890-4cba-96ed-8ecd0f27db59{fill:url(#ea178d10-3c57-424e-a133-26794f2041dd);}.a3f551df-68cd-4324-bb88-aa428baf5cca{fill:url(#a2afa504-06e3-41f6-bd55-4b763b089af4);}.abdad3f2-c8a8-4b52-b26e-c4c5184c41b6{fill:url(#a8d47ea6-65cd-4903-9ba2-7fc6fb31bf92);}.f88a045f-516e-4b7e-b140-2b89b77ef21d{fill:url(#b528c123-b9bb-4e1f-9baf-94578621c99a);}.bbf627d4-8b28-4bb6-a392-676af4dbb313{fill:url(#f47364ff-9787-4d99-bc5c-f34628857c58);}.a0b59448-b5ea-441e-ad24-d7d77b18e291{fill:url(#bb8fb79c-3ce3-4a18-a139-12d4ec5b7050);}.ef4d9345-31e0-416e-83cf-38b00373e8ee{fill:url(#b7be68eb-c283-496d-a548-750b8ce19432);}.a8fae872-c075-4bb4-a211-5662c8a60d51{fill:url(#b0b57b20-51b6-420c-8483-5a46a4225eb8);}.b450116d-fdc8-48ff-9483-c0409307075a{fill:url(#f2d9e5eb-e59c-44a5-b9b5-adc07a4ccdc6);}.a7abdcf1-7181-49a6-968e-574f23c4e922{fill:url(#ba79e767-7398-41cf-ad76-696fdfcf5867);}</style><linearGradient id="e83a92e7-2b4e-4a60-a1fc-741a3e55cee8" x1="33.72" y1="71.19" x2="81.75" y2="62.72" gradientUnits="userSpaceOnUse"><stop offset="0" stop-color="#bc9038"/><stop offset="0.39" stop-color="#fbef82"/><stop offset="0.73" stop-color="#bc9038"/></linearGradient><linearGradient id="e4e6baa7-b4fe-4db6-95f6-3fcfef2d3421" x1="142.88" y1="62.44" x2="195.97" y2="53.08" gradientUnits="userSpaceOnUse"><stop offset="0" stop-color="#bc9038"/><stop offset="0.07" stop-color="#c29a3f"/><stop offset="0.19" stop-color="#d3b354"/><stop offset="0.33" stop-color="#efdd74"/><stop offset="0.39" stop-color="#fbef82"/><stop offset="0.44" stop-color="#f0de75"/><stop offset="0.56" stop-color="#d4b454"/><stop offset="0.67" stop-color="#c29a40"/><stop offset="0.73" stop-color="#bc9038"/></linearGradient><linearGradient id="eb49bed2-35dd-4d2d-9882-64a3ddf5e8ae" x1="19.85" y1="133.6" x2="205.27" y2="100.91" xlink:href="#e83a92e7-2b4e-4a60-a1fc-741a3e55cee8"/><linearGradient id="a21bb6b3-00bf-44c6-ad07-90fe57f42e4e" x1="36.12" y1="111.37" x2="48.22" y2="109.23" xlink:href="#e83a92e7-2b4e-4a60-a1fc-741a3e55cee8"/><linearGradient id="bd754781-b3bf-46d9-93a6-dc93bc0af982" x1="149.98" y1="111.09" x2="160.67" y2="109.21" xlink:href="#e83a92e7-2b4e-4a60-a1fc-741a3e55cee8"/><linearGradient id="ae22e81c-40f0-4df3-ae16-5e30032d26ec" x1="87.16" y1="110.95" x2="96.5" y2="109.3" xlink:href="#e83a92e7-2b4e-4a60-a1fc-741a3e55cee8"/><linearGradient id="efd12832-c08e-40cc-b9a1-9b53ace7ad7e" x1="59.19" y1="111.08" x2="67.67" y2="109.59" xlink:href="#e83a92e7-2b4e-4a60-a1fc-741a3e55cee8"/><linearGradient id="b0604f5d-bd04-4b02-8e7d-41c3154525ba" x1="135.21" y1="111.08" x2="143.66" y2="109.59" xlink:href="#e83a92e7-2b4e-4a60-a1fc-741a3e55cee8"/><linearGradient id="ae693b32-eb5d-4cde-b451-bacb04fbec0c" x1="107.02" y1="111.09" x2="115.47" y2="109.6" xlink:href="#e83a92e7-2b4e-4a60-a1fc-741a3e55cee8"/><linearGradient id="e6a61262-23c9-4ad0-8747-872c855ed1b4" x1="173.97" y1="111.09" x2="182.44" y2="109.6" xlink:href="#e83a92e7-2b4e-4a60-a1fc-741a3e55cee8"/><linearGradient id="ea178d10-3c57-424e-a133-26794f2041dd" x1="162.5" y1="111.05" x2="172.13" y2="109.35" xlink:href="#e83a92e7-2b4e-4a60-a1fc-741a3e55cee8"/><linearGradient id="a2afa504-06e3-41f6-bd55-4b763b089af4" x1="126.22" y1="110.9" x2="134.07" y2="109.51" xlink:href="#e83a92e7-2b4e-4a60-a1fc-741a3e55cee8"/><linearGradient id="a8d47ea6-65cd-4903-9ba2-7fc6fb31bf92" x1="191.72" y1="110.9" x2="199.6" y2="109.51" xlink:href="#e83a92e7-2b4e-4a60-a1fc-741a3e55cee8"/><linearGradient id="b528c123-b9bb-4e1f-9baf-94578621c99a" x1="96.58" y1="111.31" x2="105.06" y2="109.82" xlink:href="#e83a92e7-2b4e-4a60-a1fc-741a3e55cee8"/><linearGradient id="f47364ff-9787-4d99-bc5c-f34628857c58" x1="16.89" y1="111.32" x2="25.34" y2="109.83" xlink:href="#e83a92e7-2b4e-4a60-a1fc-741a3e55cee8"/><linearGradient id="bb8fb79c-3ce3-4a18-a139-12d4ec5b7050" x1="184.49" y1="110.77" x2="190.72" y2="109.68" xlink:href="#e83a92e7-2b4e-4a60-a1fc-741a3e55cee8"/><linearGradient id="b7be68eb-c283-496d-a548-750b8ce19432" x1="50.55" y1="110.57" x2="58.63" y2="109.15" xlink:href="#e83a92e7-2b4e-4a60-a1fc-741a3e55cee8"/><linearGradient id="b0b57b20-51b6-420c-8483-5a46a4225eb8" x1="201.01" y1="110.77" x2="207.17" y2="109.68" xlink:href="#e83a92e7-2b4e-4a60-a1fc-741a3e55cee8"/><linearGradient id="f2d9e5eb-e59c-44a5-b9b5-adc07a4ccdc6" x1="117.45" y1="110.42" x2="125.68" y2="108.97" xlink:href="#e83a92e7-2b4e-4a60-a1fc-741a3e55cee8"/><linearGradient id="ba79e767-7398-41cf-ad76-696fdfcf5867" x1="27.51" y1="110.94" x2="34.74" y2="109.66" xlink:href="#e83a92e7-2b4e-4a60-a1fc-741a3e55cee8"/></defs><g id="f90d438d-b030-43ba-86ba-fa5a35c0304a" data-name="Layer 2"><g id="a1ca4443-35ba-4569-968d-054fcfc14a93" data-name="Layer 1"><polygon points="229.78 139.89 114.89 192.03 0 139.89 0 0 229.78 0 229.78 139.89"/><path class="ec1603a7-5ac6-421f-8326-2ff92f2b22a1" d="M80.51,82.4a1,1,0,0,1-.59.08H70c-.27,0-.55,0-.83,0a.35.35,0,0,1-.38-.4c0-1,0-1.93,0-2.89,0-.28.14-.36.39-.36l2.57,0c.44,0,.53-.08.43-.51s-.2-.74-.31-1.11q-1.32-4.79-2.65-9.57a3.09,3.09,0,0,0-.28-.71c-.14-.25-.41,0-.63-.12a1.1,1.1,0,0,0-.63,0c-.92.07-1.84,0-2.76,0l-4.29.08c-.51,0-.53,0-.53.55,0,1.83,0,3.67,0,5.51,0,.92,0,1.84,0,2.75,0,3.64-.05,7.27,0,10.9,0,2.84,0,5.68.08,8.53a9.31,9.31,0,0,1-.47,3.47,4.56,4.56,0,0,1-4.38,3H48.93c-.11,0-.21,0-.32,0-.83,0-.84,0-.83-.86s0-1.62,0-2.44c0-.33.11-.46.45-.46.72,0,1.45,0,2.18,0h4.67c.89,0,1.07-.16,1.27-1a5.54,5.54,0,0,0,.12-1.15c0-1.3,0-2.6,0-3.9,0-4.06,0-8.12,0-12.18s0-8.08,0-12.12c0-.36-.12-.51-.45-.55a4.1,4.1,0,0,0-.7,0C53,67,50.75,67,48.5,67c-1.16,0-1.22,0-1.58,1.15-.72,2.25-1.4,4.53-2.17,6.77-.33,1-.62,1.92-.87,2.9,0,.15-.07.29-.11.44s0,.4.3.41l1.86,0c.32,0,.64,0,1,.06a.4.4,0,0,1,.39.41c.06.94,0,1.88,0,2.82,0,.22,0,.34-.32.36s-.81.1-1.22.1l-9.48,0c-.59,0-.61,0-.64-.6a24.83,24.83,0,0,0-.11-3,1,1,0,0,1,.64-.1c.94,0,1.88,0,2.82,0,.72,0,.72,0,.94-.71q1.47-4.67,2.95-9.35c.79-2.5,1.53-5,2.34-7.51,1.33-4.1,2.57-8.23,3.93-12.32,0-.1,0-.2.09-.3a3.69,3.69,0,0,0,0-2.86,11.93,11.93,0,0,1-.92-4.42A7.81,7.81,0,0,1,50,36.05a6.38,6.38,0,0,1,2.18-1.76,13.67,13.67,0,0,1,12.15-.36,8,8,0,0,1,2.78,2.12,7.13,7.13,0,0,1,1.63,5.12,12.63,12.63,0,0,1-1.15,4.64,2.44,2.44,0,0,0-.11,1.74c.49,1.81,1,3.62,1.47,5.44.37,1.41.8,2.8,1.18,4.21s.78,2.84,1.19,4.26c.09.28,0,.57.14.86s.32.64.73.65a33.07,33.07,0,0,0,4.67-.07.51.51,0,0,0,.54-.57c0-.34.06-.68.06-1,0-.66,0-1.32,0-2,0-.44,0-.47.47-.48.94,0,1.88,0,2.82,0,.24,0,.35.11.35.35s0,.38,0,.57v3.08a3.39,3.39,0,0,1-2.58,3.47,11.43,11.43,0,0,1-3,.43c-.58,0-1.15,0-1.73,0a4.62,4.62,0,0,0-.64.06c-.24,0-.32.18-.25.41s.17.61.26.92q1.35,4.88,2.71,9.75c0,.08,0,.16.07.25.12.57.12.61.71.62,1,0,2,0,3,0,.7,0,.75.06.77.77A24.71,24.71,0,0,0,80.51,82.4ZM66.28,63c.34,0,.69,0,1,0,.52,0,.57-.11.45-.64l0-.12c-.65-2.32-1.31-4.64-2-7C65,52.55,64.26,49.79,63.5,47a2,2,0,0,1,.14-1.54,11.91,11.91,0,0,0,1.23-3.28A5.45,5.45,0,0,0,65,40.38a3.74,3.74,0,0,0-2.35-3.11,9.08,9.08,0,0,0-5.26-.74,10,10,0,0,0-3.07.86A3.83,3.83,0,0,0,52,41.12,10.21,10.21,0,0,0,53.41,46a1.53,1.53,0,0,1,.14,1.32c-.9,2.76-1.75,5.53-2.64,8.3-.37,1.15-.69,2.31-1.14,3.44a6.65,6.65,0,0,0-.47,1.57,7,7,0,0,1-.58,1.82c-.31.73-.3.79.46.8H50l6.21-.09C59.54,63.09,62.91,63.16,66.28,63Z"/><path class="b3625158-e7cf-4201-9a4c-4427de12799a" d="M118,82.08c2.08,1,4,2.29,6.14,3.15a14.87,14.87,0,0,0,8.55.71A7.17,7.17,0,0,0,135,85a28.91,28.91,0,0,0,3.31-2.42c.19-.16.41-.31.6-.48a.35.35,0,0,1,.46,0c.47.27.49.33.13.74a37.36,37.36,0,0,1-5.7,5.33,10.6,10.6,0,0,1-7.48,2.09,18,18,0,0,1-4.58-1.13A60,60,0,0,1,116,86.55c-3-1.45-5.93-2.92-8.86-4.47a5.78,5.78,0,0,0-.9-.35,30.67,30.67,0,0,1-5.66-2.19,24.51,24.51,0,0,1-10.9-12.18,23.72,23.72,0,0,1-1.89-11.84c.89-8.76,5.3-15.23,13-19.48A24.1,24.1,0,0,1,115,33.17,24.35,24.35,0,0,1,136.82,53c1.61,8.91-.95,16.59-7.42,23a22.25,22.25,0,0,1-10.92,5.87A.91.91,0,0,0,118,82.08Zm13.72-24a44.85,44.85,0,0,0-.3-5.18,24.82,24.82,0,0,0-3.15-9.61,16.88,16.88,0,0,0-9.3-7.64,18.85,18.85,0,0,0-10.23-.67,17.5,17.5,0,0,0-12.1,8.68,25.3,25.3,0,0,0-3.17,11.7,42.76,42.76,0,0,0,.24,7.42,26.18,26.18,0,0,0,2.7,8.9,16.66,16.66,0,0,0,9.42,8.24,20.08,20.08,0,0,0,12.1.54,16.36,16.36,0,0,0,9.79-7,21.59,21.59,0,0,0,2.41-4.86A31.38,31.38,0,0,0,131.68,58Z"/><path class="b955b23d-45c1-4ee7-a6b0-785d93b81575" d="M156,55.66a1.26,1.26,0,0,0,.6.06l25.32.06c1,0,.89.1.89-.89q0-7.28,0-14.55a7.29,7.29,0,0,0-.3-2.28,4.27,4.27,0,0,0-3.95-3.13l-.45,0c-.2,0-.38,0-.39-.3s.17-.3.38-.3.21,0,.32,0h14c.2,0,.25.11.25.28s0,.29-.24.3a7.75,7.75,0,0,0-1,.07,4.27,4.27,0,0,0-3.69,3.73,7.93,7.93,0,0,0-.13,1.46l0,35.27a8.23,8.23,0,0,0,.24,2.09,4,4,0,0,0,3.33,3.06c.36.07.72.09,1.08.13.17,0,.36,0,.37.24s-.22.25-.4.26-.22,0-.33,0H178c-.18,0-.17-.16-.18-.29a.18.18,0,0,1,.19-.2c.32,0,.64,0,1-.1a4.3,4.3,0,0,0,3.87-4.19c.06-.83,0-1.66,0-2.5V58a1.2,1.2,0,0,0,0-.19c0-.55,0-.56-.57-.56H156.57c-.55,0-.56,0-.56.57V72.21c0,1.11,0,2.22,0,3.34a6.18,6.18,0,0,0,.45,2.44A4.25,4.25,0,0,0,159,80.32a6.54,6.54,0,0,0,1.75.34c.19,0,.34,0,.35.27s-.16.31-.37.31h-.39l-13.59,0h-.45c-.12,0-.16-.12-.16-.24s0-.21.16-.23l.64-.07c2.38-.21,4-1.78,4.17-4.53,0-.25,0-.51,0-.77q0-17.54,0-35.07a8.74,8.74,0,0,0-.15-1.91,4.06,4.06,0,0,0-3.71-3.43l-.83-.08c-.18,0-.29-.07-.29-.26s.13-.29.33-.29.21,0,.32,0l13.65,0h.39c.17,0,.28.06.28.25s0,.34-.26.36a8.23,8.23,0,0,0-1.4.16,4.18,4.18,0,0,0-2.85,2.18,5.21,5.21,0,0,0-.59,2.54c0,5.2,0,10.39,0,15.58A2.77,2.77,0,0,0,156,55.66Z"/><path class="ffed7d27-a790-48f9-b9b8-069e1283f3ca" d="M81.11,117.28a11.38,11.38,0,0,1-2-1.9,2.49,2.49,0,0,0-1.11-.59,5,5,0,0,1-3.31-4.58,4.86,4.86,0,0,1,3.16-4.55,5,5,0,0,1,6.61,3.55,4.86,4.86,0,0,1-3,5.48l-.75.26a9.62,9.62,0,0,0,2.12,2.15,2.12,2.12,0,0,0,1.1.3c4.08,0,8.16,0,12.24,0H207.75c.44,0,.53.13.47.54a.26.26,0,0,1-.3.26H17.57a.45.45,0,0,1-.44-.67.24.24,0,0,1,.25-.15H81Zm-4.91-7.21a5.2,5.2,0,0,0,1.26,3.73,2.36,2.36,0,0,0,1.56.79,3.23,3.23,0,0,0,3.69-2,6,6,0,0,0-.06-4.91,3,3,0,0,0-2.92-1.94,3.18,3.18,0,0,0-3,1.91A5.19,5.19,0,0,0,76.2,110.07Z"/><path class="e29ff4cd-4b12-4b5c-bd8f-b4d758661257" d="M36.7,114.69a.19.19,0,0,1,.15-.19,1.23,1.23,0,0,0,.92-1.24c.13-1.32.25-2.64.37-4,.07-.75.13-1.5.2-2.24,0-.58,0-.7-.5-1l-.23-.11c-.14-.07-.4,0-.35-.27s.25-.1.39-.1c.45,0,.9,0,1.35,0a.62.62,0,0,1,.71.46c.28.8.56,1.59.91,2.36.64,1.38,1.15,2.82,1.78,4.25a.7.7,0,0,0,.28-.42q1.05-2.59,2.12-5.19a2.76,2.76,0,0,0,.2-.47c.15-.91.74-1.13,1.56-1,.34.06.71-.1,1,.1,0,.21-.18.22-.29.25a.89.89,0,0,0-.71.94c0,.52,0,1,.07,1.54.1,1.41.23,2.81.35,4.22,0,.27.06.55.1.82.06.51.24.91.81,1,.1,0,.22.06.22.19s-.18.15-.3.15H45.16c-.1,0-.23,0-.27-.11s.07-.2.17-.23c.7-.18.79-.71.74-1.3-.08-1.19-.18-2.39-.3-3.58a12.57,12.57,0,0,0-.22-2.07,2.37,2.37,0,0,0-.63,1.17c-.5,1.23-.93,2.48-1.46,3.69-.27.63-.52,1.27-.79,1.89-.08.19-.08.49-.33.5s-.26-.29-.34-.48c-.56-1.36-1.12-2.72-1.67-4.09-.3-.71-.58-1.42-.88-2.13-.06-.15-.08-.33-.31-.41a5.24,5.24,0,0,0-.19,1.3c-.12,1.26-.22,2.51-.34,3.77a1.42,1.42,0,0,0,1,1.76.26.26,0,0,1,.16.18A7.91,7.91,0,0,1,36.7,114.69Z"/><path class="a4781a63-8296-4b01-bdfd-d37313b3d81d" d="M157.79,109.92c0-1.09,0-2.1,0-3.1a.85.85,0,0,0-.72-.92.26.26,0,0,1-.25-.15,10,10,0,0,1,3.23-.06c0,.21-.14.19-.24.21a.89.89,0,0,0-.71.87,3.76,3.76,0,0,0,0,.58c0,1.9,0,3.8,0,5.7,0,.17,0,.34,0,.51a.92.92,0,0,0,.78,1,.51.51,0,0,1,.17.07s0,0,0,.06a9.61,9.61,0,0,1-3.22.07c0-.2.13-.19.24-.21a.8.8,0,0,0,.7-.8c.08-1,0-2,0-3.08,0-.23-.15-.27-.34-.27h-1.41c-.89,0-1.79,0-2.69,0-.51,0-.52,0-.52.49,0,.77,0,1.53,0,2.3a5.7,5.7,0,0,0,.06.58.82.82,0,0,0,.68.75c.11,0,.26,0,.3.17s-.19.15-.32.15H151c-.12,0-.29,0-.33-.11s.14-.19.25-.21a.83.83,0,0,0,.69-.81,5.49,5.49,0,0,0,.05-.7V107.4c0-.13,0-.25,0-.38,0-.54-.15-1-.82-1.12-.09,0-.17-.05-.17-.15s.07-.15.16-.15c1,0,2,0,3.07,0,0,0,0,0,0,.06,0,.2-.14.19-.24.21a.9.9,0,0,0-.75.91,12.67,12.67,0,0,0,0,1.85c0,.4-.19.9.12,1.17s.74.07,1.12.07Z"/><path class="b82787e0-2779-4f74-af20-cb6f67626330" d="M95.85,105.61c-.06.16-.06.19-.07.2-.83.15-1,.74-1,1.47,0,2,0,3.89,0,5.84a4.35,4.35,0,0,0,0,.51.89.89,0,0,0,.71.88,2,2,0,0,1,.26.09c0,.21-.14.19-.24.2-.53,0-1.06,0-1.6,0-.31,0-.42-.12-.4-.41s0-.43,0-.65c-.26,0-.34.18-.47.29a3.86,3.86,0,0,1-2.57,1,2.91,2.91,0,0,1-3.12-3c0-1.51,0-3,0-4.55a5.47,5.47,0,0,0,0-.7c-.06-.46-.24-.82-.76-.9-.08,0-.18,0-.2-.12a8.68,8.68,0,0,1,3.24,0c0,.11-.08.14-.16.15a.92.92,0,0,0-.83,1c0,1.79-.05,3.59,0,5.38a2.06,2.06,0,0,0,2.13,2.11,2.94,2.94,0,0,0,2.64-1.3.88.88,0,0,0,.14-.54v-5.45c0-.56-.11-1.08-.78-1.22a.15.15,0,0,1-.13-.18c0-.09.09-.09.15-.09Z"/><path class="ad6521db-363b-41b7-be77-b4778d675040" d="M64.88,110.3a8.4,8.4,0,0,1,1.8,2.32,9.2,9.2,0,0,0,.87,1.27,1.73,1.73,0,0,0,.88.6.17.17,0,0,1,.12.2c0,.1-.1.13-.19.13H66.89c-.23,0-.33-.16-.45-.31a19.83,19.83,0,0,1-1.11-1.65,13.78,13.78,0,0,0-1-1.42,2.11,2.11,0,0,0-1.93-.8c-.21,0-.3.08-.3.3,0,.87,0,1.75,0,2.62a.86.86,0,0,0,.78.94c.11,0,.23,0,.21.19s-.15.13-.25.13H60.06c-.11,0-.23,0-.23-.15s.07-.15.16-.16c.69-.09.83-.59.84-1.17v-6.28c0-.57-.13-1.08-.83-1.16-.09,0-.17-.05-.17-.15s.12-.16.22-.16a40.76,40.76,0,0,1,4.42.09,3,3,0,0,1,1.28.54,2.24,2.24,0,0,1-.28,3.79Zm-2-4.31h-.25c-.51,0-.52,0-.52.52v2.44c0,1.37,0,1.4,1.43,1.18l.25-.05a1.78,1.78,0,0,0,1.43-1.31A2.06,2.06,0,0,0,63.34,106Z"/><path class="ab489599-2dd9-4a7d-a66a-3e196670ef0e" d="M135.83,105.73c.11-.18.28-.12.42-.12h3.39a3.82,3.82,0,0,1,1.5.29,2.26,2.26,0,0,1,1.5,2.12,2.11,2.11,0,0,1-1.41,2.09l-.4.19a10.47,10.47,0,0,1,2.09,2.77,3.16,3.16,0,0,0,1.59,1.51s0,.08.05.15c-.31.18-.66,0-1,.1a1.31,1.31,0,0,1-1.5-.78c-.29-.52-.64-1-1-1.51a12.51,12.51,0,0,0-.86-1.2,2.16,2.16,0,0,0-1.9-.71c-.22,0-.3.12-.3.32,0,.86,0,1.71,0,2.57a.91.91,0,0,0,.8,1c.08,0,.18,0,.19.14s-.06.15-.16.15c-1,0-2,0-3,0,0,0,0-.06-.07-.09s0-.06,0-.06c.86-.17,1-.82,1-1.54v-3.78c0-.62,0-1.24,0-1.86,0-.26,0-.51-.06-.77a.76.76,0,0,0-.66-.75C136,105.89,135.9,105.9,135.83,105.73Zm2.23,2.31h0c0,.59,0,1.19,0,1.79,0,.23.08.36.33.35a7.85,7.85,0,0,0,1.28-.07,1.93,1.93,0,0,0,1.66-1.91,2,2,0,0,0-1.36-2.09,4.77,4.77,0,0,0-1.64-.15c-.25,0-.27.16-.27.35Z"/><path class="feaddd45-ac80-4bc8-b5e3-300b2e1bdd9a" d="M107.66,114.71c.06-.08.07-.13.1-.14.8-.31.92-.44.92-1.3q0-3.08,0-6.15a2.27,2.27,0,0,0,0-.45.82.82,0,0,0-.66-.76c-.12,0-.26,0-.31-.16s.17-.14.27-.14c1.24,0,2.48,0,3.72,0a3.43,3.43,0,0,1,1.59.42,2.21,2.21,0,0,1,1.21,2.1,2.12,2.12,0,0,1-1.29,1.91,1.12,1.12,0,0,0-.47.28,12,12,0,0,1,2.19,3,2.56,2.56,0,0,0,1.34,1.23.15.15,0,0,1,.11.2c0,.08-.09.08-.15.08h-1.47c-.23,0-.33-.17-.45-.32-.43-.56-.8-1.16-1.17-1.75a10.87,10.87,0,0,0-1-1.41,2.16,2.16,0,0,0-1.9-.71c-.23,0-.29.14-.29.33,0,.84,0,1.67,0,2.5a1,1,0,0,0,.85,1.1.16.16,0,0,1,.14.11A9.79,9.79,0,0,1,107.66,114.71Zm2.26-6.68c0,.59,0,1.19,0,1.79,0,.27.11.38.38.37a8.18,8.18,0,0,0,1.21-.06,1.92,1.92,0,0,0,1.66-1.83,2,2,0,0,0-1.41-2.22,5.06,5.06,0,0,0-1.45-.13c-.33,0-.4.13-.39.42C109.93,106.92,109.92,107.47,109.92,108Z"/><path class="aecdc344-1520-4975-ba1e-4c66f7ddc75f" d="M183.25,114.8h-1.7c-.22,0-.32-.2-.42-.36-.39-.56-.77-1.13-1.14-1.7a14.37,14.37,0,0,0-1-1.36,2.16,2.16,0,0,0-1.94-.77c-.25,0-.33.13-.33.36,0,.81,0,1.62,0,2.43,0,.58.21,1,.87,1.15.08,0,.1.07.12.13a11.55,11.55,0,0,1-3.17,0s0-.11,0-.11c.81-.12.94-.72,1-1.37,0-.94,0-1.88,0-2.82s0-1.92,0-2.88c0-.23,0-.47,0-.7a.88.88,0,0,0-.77-.95c-.09,0-.17,0-.18-.15s.26-.1.4-.1q1.66,0,3.33,0a3.87,3.87,0,0,1,1.5.27,2.3,2.3,0,0,1,1.54,2.15,2.15,2.15,0,0,1-1.5,2.09l-.41.16A5.19,5.19,0,0,1,181,112c.21.34.42.69.64,1,.43.66.83,1.35,1.7,1.56ZM176.78,108h0c0,.38,0,.77,0,1.15,0,1.16-.19,1,1,1a2.36,2.36,0,0,0,1.35-.3,2.11,2.11,0,0,0,.92-2,2,2,0,0,0-1.38-1.75,4.88,4.88,0,0,0-1.52-.14c-.32,0-.4.13-.39.42C176.79,106.92,176.78,107.48,176.78,108Z"/><path class="bb33bf9a-9890-4cba-96ed-8ecd0f27db59" d="M172.2,110.14a4.89,4.89,0,0,1-9.78.06,4.89,4.89,0,0,1,9.78-.06Zm-1.39-.12a7.88,7.88,0,0,0-.07-.83,4.49,4.49,0,0,0-1.23-2.61,3.29,3.29,0,0,0-4.25-.11,4.32,4.32,0,0,0-1.33,2.56,5.79,5.79,0,0,0,.6,4,3.16,3.16,0,0,0,5.47.14A5.35,5.35,0,0,0,170.81,110Z"/><path class="a3f551df-68cd-4324-bb88-aa428baf5cca" d="M133.43,107.17a.71.71,0,0,1-.29-.44.89.89,0,0,0-.87-.63l-2.89,0c-.2,0-.31.08-.31.3q0,1.64,0,3.27c0,.26.13.33.36.32h2.37a.72.72,0,0,0,.76-.56c0-.12.05-.25.2-.3s.13,0,.13.11c0,.62,0,1.23,0,1.85,0,.08,0,.18-.09.22s-.21-.06-.23-.16c-.15-.61-.59-.7-1.13-.69s-1.32,0-2,0c-.31,0-.42.11-.41.41,0,.92,0,1.84,0,2.76,0,.58.14.72.71.73s1.41,0,2.12,0a1.53,1.53,0,0,0,1.5-.89c.07-.15.1-.34.37-.37a5,5,0,0,1-.34,1.59c-.06.21-.28.13-.44.13h-5.7c-.14,0-.3.06-.41-.08s.11-.17.2-.19a.83.83,0,0,0,.73-.84c0-.23.05-.47.05-.7,0-1.84,0-3.67,0-5.51,0-.13,0-.26,0-.38,0-.63-.19-1.15-.93-1.25,0,0,0-.06-.07-.1.08-.2.25-.12.39-.12H133c.46,0,.46,0,.47.46S133.43,106.73,133.43,107.17Z"/><path class="abdad3f2-c8a8-4b52-b26e-c4c5184c41b6" d="M198.39,109.07a13.86,13.86,0,0,1,0,2.13.23.23,0,0,1-.08.09.12.12,0,0,1-.16-.05.26.26,0,0,1-.07-.11c-.14-.61-.59-.7-1.12-.69s-1.32,0-2,0c-.31,0-.4.11-.4.41,0,.94,0,1.88,0,2.82,0,.5.16.64.66.65.75,0,1.5,0,2.25,0a1.45,1.45,0,0,0,1.39-.84c.08-.16.11-.38.4-.4a6,6,0,0,1-.32,1.54.22.22,0,0,1-.23.18h-5.83a.87.87,0,0,1-.53-.06c0-.24.16-.22.26-.24a.81.81,0,0,0,.68-.81c0-.28,0-.56.06-.83v-5.38c0-.77,0-1.54-1-1.67,0-.25.19-.2.3-.2,1.95,0,3.89,0,5.83,0,.33,0,.46.1.44.44s0,.67,0,1.07c-.26-.11-.25-.3-.31-.44a.83.83,0,0,0-.72-.56c-1-.08-2,0-3.07,0-.19,0-.25.11-.25.29v3.33c0,.19.11.26.28.26h2.5a.67.67,0,0,0,.68-.49A.47.47,0,0,1,198.39,109.07Z"/><path class="f88a045f-516e-4b7e-b140-2b89b77ef21d" d="M102.7,114.7c.92-.51.92-.51.59-1.52-.2-.59-.41-1.17-.59-1.76a.4.4,0,0,0-.45-.34q-1.16,0-2.31,0a.37.37,0,0,0-.41.31c-.19.63-.42,1.25-.61,1.89-.26.83-.2,1,.53,1.36a4.54,4.54,0,0,1-2.28,0c0-.07,0-.14.09-.15a1.77,1.77,0,0,0,1.2-1.37c.42-1.24.83-2.47,1.24-3.7s.78-2.35,1.18-3.52a.72.72,0,0,1,1-.44c.19.09.2.31.26.48l1.8,5.34.63,1.88c.36,1.05.36,1.05,1.33,1.43A8.65,8.65,0,0,1,102.7,114.7Zm-.35-4.25c-.38-1.26-.77-2.43-1.2-3.6H101l-1.19,3.59Z"/><path class="bbf627d4-8b28-4bb6-a392-676af4dbb313" d="M26.2,114.68a11.58,11.58,0,0,1-3.13,0c0-.22.2-.17.32-.22.37-.17.5-.32.39-.69-.25-.84-.54-1.66-.81-2.49a.32.32,0,0,0-.35-.23c-.81,0-1.62,0-2.43,0a.35.35,0,0,0-.35.3c-.23.71-.48,1.42-.68,2.14s-.1.72.51,1c.07,0,.09.08.1.18-.19.14-.43.07-.65.08-.49,0-1,0-1.47,0-.09,0-.17,0-.17-.14a.19.19,0,0,1,.1-.14c.83-.2,1-.9,1.25-1.57.79-2.32,1.56-4.64,2.35-7,.17-.5.17-.47.65-.5s.5.17.61.49c.78,2.34,1.57,4.69,2.36,7l.18.54a1.22,1.22,0,0,0,1.1,1,.3.3,0,0,1,.1.07S26.19,114.66,26.2,114.68Zm-4.74-7.87h-.12l-1.2,3.64h2.54Z"/><path class="a0b59448-b5ea-441e-ad24-d7d77b18e291" d="M190,105.51v2a.11.11,0,0,1-.13.11.13.13,0,0,1-.14-.1c0-.15-.07-.29-.12-.43a2,2,0,0,0-2.76-1.18,1.37,1.37,0,0,0-.53,2.06,2.79,2.79,0,0,0,.77.76c.46.31.93.61,1.4.91a8.48,8.48,0,0,1,1.22.92,2.54,2.54,0,0,1,.52,3.06,2.6,2.6,0,0,1-2.85,1.35,7.15,7.15,0,0,1-1.21-.4c-.25-.1-.47-.16-.67.13s-.32.14-.32-.1c0-.68,0-1.37,0-2.05,0-.09,0-.17.14-.17s.14.07.15.16a2.06,2.06,0,0,0,0,.26,2.22,2.22,0,0,0,2.91,1.72,1.56,1.56,0,0,0,.87-2.29,2.43,2.43,0,0,0-.74-.79l-1.54-1a7,7,0,0,1-1-.73,2.7,2.7,0,0,1-.56-3.07,2.44,2.44,0,0,1,2.59-1.25,5,5,0,0,1,.93.22C189.31,105.71,189.63,105.84,190,105.51Z"/><path class="ef4d9345-31e0-416e-83cf-38b00373e8ee" d="M54.34,109.52c.54-.86,1-1.63,1.51-2.41a1.65,1.65,0,0,0,.18-.41c.12-.4.06-.55-.32-.77-.09-.05-.23-.07-.22-.2s.14-.14.25-.14h2c.11,0,.23,0,.23.15s-.11.18-.21.19a1.54,1.54,0,0,0-1.13.86l-2,3.08a1,1,0,0,0-.19.53c0,1,0,2,0,3.08,0,.51.15.93.75,1,.1,0,.21.06.18.2s-.16.12-.26.12H52.41c-.1,0-.23,0-.25-.13s.11-.15.21-.19c.71-.24.85-.39.87-1.12,0-1,0-2,0-2.95a1,1,0,0,0-.18-.53c-.67-1-1.32-2.05-2-3.07a1.65,1.65,0,0,0-1.17-.91c-.1,0-.22,0-.22-.18s.14-.15.24-.15H53c.1,0,.23,0,.25.13s-.1.15-.2.18c-.84.25-.87.34-.4,1.07S53.74,108.61,54.34,109.52Z"/><path class="a8fae872-c075-4bb4-a211-5662c8a60d51" d="M206.44,105.54a15.23,15.23,0,0,1,.05,1.91c0,.09,0,.17-.14.17s-.14-.07-.17-.16a2.49,2.49,0,0,0-.09-.37,2,2,0,0,0-2.82-1.15,1.33,1.33,0,0,0-.67,1.68,2.06,2.06,0,0,0,.67.92,12.4,12.4,0,0,0,1.43,1,8.56,8.56,0,0,1,1.49,1.1,2.53,2.53,0,0,1,.48,3.06,2.59,2.59,0,0,1-2.81,1.31,3.71,3.71,0,0,1-.91-.29c-.43-.19-.83-.33-1.22.16a20.85,20.85,0,0,1-.08-2.51c.35.15.28.41.32.59a2.23,2.23,0,0,0,2.81,1.65,1.56,1.56,0,0,0,.87-2.49,4.23,4.23,0,0,0-1.14-1c-.59-.39-1.19-.77-1.76-1.18a2.55,2.55,0,0,1-1.05-2,2.38,2.38,0,0,1,2.78-2.56,6.82,6.82,0,0,1,.87.2C205.94,105.75,205.94,105.76,206.44,105.54Z"/><path class="b450116d-fdc8-48ff-9483-c0409307075a" d="M122.51,114.67a10.7,10.7,0,0,1-3.16,0c0-.16.11-.16.2-.18a.92.92,0,0,0,.77-.9,4.5,4.5,0,0,0,0-.64v-6.34c0-.64,0-.64-.68-.64a9,9,0,0,0-1.27,0,1.29,1.29,0,0,0-1.23,1,.94.94,0,0,1-.1.23l-.06,0c-.17,0-.13-.19-.13-.3,0-.26,0-.51,0-.77s-.12-.66.08-.87.49.14.76.16.59.06.89.06h4.61a3.54,3.54,0,0,0,1.44-.22c.34-.14.42-.07.43.28,0,.53,0,1.06,0,1.63-.28,0-.26-.26-.32-.39a1.34,1.34,0,0,0-1.05-.83,9.59,9.59,0,0,0-1.85-.08.25.25,0,0,0-.29.27c0,.15,0,.3,0,.45v6.14c0,.17,0,.34,0,.51,0,.62.18,1.1.88,1.2C122.47,114.58,122.49,114.64,122.51,114.67Z"/><path class="a7abdcf1-7181-49a6-968e-574f23c4e922" d="M28.17,114.67c1-.24,1-1,1-1.76v-5.58a4.35,4.35,0,0,0,0-.51.87.87,0,0,0-.71-.93c-.1,0-.22,0-.26-.15a11.48,11.48,0,0,1,3.18,0c0,.12-.06.15-.14.17a1,1,0,0,0-.81,1.14c0,2.18,0,4.36,0,6.53,0,.56.22.77.8.79.77,0,1.54,0,2.3,0a1.33,1.33,0,0,0,1.37-1c.08-.19.1-.41.29-.55.2.06.11.2.09.3-.11.42-.25.82-.35,1.24s-.24.43-.57.43c-1.82,0-3.63,0-5.45,0A1.27,1.27,0,0,1,28.17,114.67Z"/></g></g></svg>